<svg xmlns="http://www.w3.org/2000/svg" width="360" height="360"><path fill-rule="evenodd" clip-rule="evenodd" d="M259.759 148.485c5.808-8.331 11.352-16.38 16.994-24.365 8.595-12.165 16.909-24.557 26.019-36.319 5.271-6.806 12.446-11.693 21.32-13.124 5.444-.877 10.854-.502 16.047 1.497 8.877 3.423 12.52 11.175 10.146 21.408-2.624 11.323-9.424 17.735-20.971 19.794-.273.054.429.27-.045.575 5.588 5.804 8.432 12.714 8.348 20.584-.209 20.545-18.28 37.957-38.775 39.529-17.369 1.334-31.287-5.503-43.352-17.228-.985-.958-.296-.637-.993-1.521-5.176 4.122-9.837 8.145-14.758 11.458-18.384 12.384-39.249 11.964-59.289 3.402-13.368-5.704-20.248-16.729-21.896-31.066-2.131-18.532 5.37-32.713 19.825-43.712 11.195-8.521 23.905-14.314 36.687-19.91 2.671-1.174 3.133-2.43 2.773-5.247-1.511-11.754-2.41-23.561.934-35.196 5.307-18.472 22.84-28.366 41.47-23.465 11.093 2.921 15.947 11.233 13.136 22.377-1.739 6.894-5.822 12.245-10.985 16.879-8.257 7.42-17.604 15.727-27.316 19.028-1.937.66-2.917 1.556-2.815 1.896 4.409 24.862 12.242 48.464 25.623 70.044.439.711.95 1.373 1.873 2.682zm58.672-39.429c5.251-14.07 15.595 3.992 23.893-4.458 8.347-10.289 5.976-26.363-9.901-27.237-5.248-.289-13.251 1.199-17.717 3.884-6.409 3.851-10.487 8.581-14.765 14.566-12.689 17.747-25.021 36.088-37.481 53.989-.377.545-.999.787-.584 1.359 5.877 8.325 11.822 15.232 20.711 20.493 5.412 3.202 10.555 4.143 16.969 3.587 21.069-1.826 37.476-19.791 34.764-40.782-1.009-7.755-3.918-14.901-11.985-18.176-2.916-1.187-4.055-3.869-3.904-7.225zm-99.859-27.62c-11.654 5.437-13.857 5.022-19.975 9.039-16.744 11.009-25.066 26.675-25.396 46.753-.317 19.232 10.795 34.41 28.402 38.069 20.453 4.247 36.255-4.163 50.009-18.5-18.665-22.424-27.662-46.374-33.04-75.361zm13.103-9.537c4.167-2.351 7.916-4.154 11.328-6.458 13.642-9.198 21.546-21.55 20.664-38.576-.401-7.6-4.505-11.438-12.128-11.294-10.186.197-18.502 7.892-20.589 19.359-2.213 12.108-.844 24.174.725 36.969z"/><path d="M224.099 334.174c-9.982 11.11-49.916 19.484-63.706 2.579-5.604-6.868-9.364-15.018-12.983-23.164a169.576 169.576 0 0 1-4.582-12.304 448.222 448.222 0 0 1-3.903-12.472 302.204 302.204 0 0 1-5.006-20.276 949.787 949.787 0 0 0-4.496-20.282c-.339-1.355-.933-2.516-1.782-3.476-.848-.962-2.065-1.555-3.648-1.785a12.34 12.34 0 0 0-4.751.258 39.204 39.204 0 0 0-4.582 1.44 18.83 18.83 0 0 0-5.515 3.31c-1.642 1.416-2.914 3.141-3.818 5.174-.793 1.699-1.218 3.425-1.273 5.18a59.477 59.477 0 0 1-.423 5.343 65.163 65.163 0 0 0-.424 5.854 67.984 67.984 0 0 1-.425 5.854 90.818 90.818 0 0 0-.508 6.194c-.115 2.206.169 4.271.848 6.194.45 1.359 1.582 2.546 3.394 3.565 2.376 1.355 4.922 2.035 7.637 2.035h3.902l-.169 3.054H69.348l.17-3.054h4.073c4.751 0 8.315-1.358 10.69-4.074 1.47-1.808 2.377-6.107 2.716-12.895l4.412-73.649c.34-5.771.17-9.617-.509-11.54-.567-1.356-1.64-2.545-3.224-3.566a15.16 15.16 0 0 0-7.636-2.031h-4.074l.17-3.057h48.532l-.169 3.057h-3.902c-2.604 0-5.151.676-7.636 2.031-1.925.909-3.283 2.268-4.073 4.076-.793 1.696-1.358 5.43-1.696 11.199l-2.037 34.788c1.129-1.019 5.202-4.583 12.218-10.691 17.647-15.385 28.282-25.566 31.904-30.546 1.582-2.147 2.486-4.07 2.714-5.77 0-1.357-.567-2.545-1.697-3.563-1.246-1.018-3.224-1.524-5.939-1.524h-2.546l.17-3.057h41.915l-.171 3.057c-2.375 0-4.58.336-6.616 1.016-2.036.68-4.582 1.866-7.636 3.562-2.829 1.587-6.562 4.414-11.2 8.486-.678.567-2.49 2.293-5.43 5.176a1575.518 1575.518 0 0 1-12.559 12.134l-18.327 17.311-4.073 4.072-6.109 6.109c2.376-.45 4.807-1.13 7.297-2.038a46.67 46.67 0 0 0 6.109-2.544 28.22 28.22 0 0 1 3.224-1.527c1.129-.452 2.432-.85 3.904-1.189 5.201-.903 9.558.737 13.066 4.921 2.036 2.491 3.619 5.432 4.751 8.826 1.129 3.394 1.921 6.678 2.376 9.843a277.285 277.285 0 0 0 1.95 12.643c.734 4.13 1.443 8.286 2.121 12.471.68 4.188 1.414 8.317 2.207 12.388.79 4.073 1.639 8.089 2.546 12.049.903 3.96 1.867 7.918 2.884 11.88 1.019 3.958 2.681 9.07 5.466 12.304 4.941 5.739 6.764 5.797 10.305 6.764 11.151 3.04 13.484.583 15.62.643 5.796.162 5.796-.965 16.584-4.024 3.872-1.103 13.418-4.413 11.916-2.742z"/><path d="M333.734 182.922l-.168 3.055h-3.903c-4.865 0-8.43 1.473-10.691 4.414-1.356 1.924-2.207 6.053-2.546 12.388l-4.411 74.496c-.341 7.128.224 11.485 1.695 13.067 1.81 2.375 4.978 3.562 9.503 3.562h3.904l-.171 3.055h-48.363l.172-3.055h4.069c4.864 0 8.429-1.47 10.692-4.411 1.357-1.921 2.208-6.05 2.548-12.388l4.409-76.026-49.551 95.88h-2.714c-.455 0-1.104-.848-1.952-2.545-.85-1.697-1.812-3.845-2.887-6.447a168.981 168.981 0 0 1-3.222-8.485 401.151 401.151 0 0 1-2.973-8.74c-.905-2.771-1.695-5.176-2.374-7.211-.68-2.038-1.133-3.337-1.357-3.905a339.62 339.62 0 0 1-7.298-19.854 333.544 333.544 0 0 0-7.467-20.194 839.818 839.818 0 0 1-3.055 7.382 262.878 262.878 0 0 1-3.222 7.381c-1.926 4.527-3.82 9.024-5.688 13.493a2302.31 2302.31 0 0 1-5.684 13.491l-5.601 13.404a42.189 42.189 0 0 1-2.631 6.873 61.742 61.742 0 0 0-2.801 6.702 556.751 556.751 0 0 0-4.495 13.747c-1.416 4.524-2.234 9.05-2.462 13.576-.228 2.263-.143 4.438.255 6.535a24.898 24.898 0 0 0 1.952 6.021c1.923 3.961 4.809 6.788 8.655 8.486a17.32 17.32 0 0 0 6.022 1.61c2.094.171 4.271.085 6.534-.254a31.057 31.057 0 0 0 6.703-1.441 27.352 27.352 0 0 0 6.194-2.97c4.072-2.716 6.898-6.224 8.485-10.521.79-2.151 1.188-4.327 1.188-6.532 0-2.208-.452-4.218-1.359-6.026-.792-1.473-.932-3.027-.422-4.665.508-1.643 1.553-2.916 3.138-3.819 1.586-.908 3.167-1.163 4.751-.766 1.584.396 2.771 1.329 3.563 2.801.793 1.358 1.02 2.828.68 4.413l-.168.848c-1.698 6.109-4.019 11.256-6.96 15.443-2.94 4.522-6.561 8.315-10.858 11.368a39.13 39.13 0 0 1-6.704 3.988 35.455 35.455 0 0 1-7.383 2.462 26.052 26.052 0 0 1-7.804.51 24.205 24.205 0 0 1-7.467-1.866c-2.604-1.132-4.754-2.546-6.449-4.242-1.925-1.927-3.451-4.018-4.581-6.28a24.902 24.902 0 0 1-2.631-7.296 27.908 27.908 0 0 1-.425-7.807c.339-5.206 1.329-10.156 2.97-14.849a644.04 644.04 0 0 1 5.007-13.831 1313.611 1313.611 0 0 1 11.71-27.065 1742.105 1742.105 0 0 0 11.708-26.896 253.07 253.07 0 0 1 3.902-9.081 387.727 387.727 0 0 0 3.903-8.908 169.86 169.86 0 0 0-4.668-9.589 113.435 113.435 0 0 0-5.344-9.08c-1.019-1.466-2.46-3.078-4.326-4.835-1.868-1.752-3.595-3.081-5.176-3.985-2.039-1.021-5.377-1.53-10.015-1.53l.171-3.055h32.241l36.146 89.092 45.817-89.092h31.74z"/><g><path d="M164.831 64.112l-.169 3.055h-3.903c-4.867 0-8.43 1.472-10.693 4.412-1.356 1.925-2.205 6.054-2.544 12.389l-4.413 74.496c-.339 7.127.226 11.483 1.698 13.068 1.808 2.375 4.976 3.564 9.503 3.564h3.903l-.171 3.054h-48.364l.17-3.054h4.073c4.863 0 8.427-1.469 10.692-4.413 1.357-1.922 2.205-6.051 2.544-12.387l4.412-76.024-49.551 95.878h-2.717c-.452 0-1.103-.849-1.951-2.546-.848-1.697-1.812-3.844-2.884-6.448a167.36 167.36 0 0 1-3.224-8.485 385.055 385.055 0 0 1-2.97-8.739c-.907-2.771-1.697-5.177-2.376-7.211-.678-2.038-1.132-3.336-1.357-3.904a340.615 340.615 0 0 1-7.298-19.854 334.664 334.664 0 0 0-7.466-20.195c-1.019 2.49-2.037 4.95-3.054 7.381a273.628 273.628 0 0 1-3.225 7.383 2310.435 2310.435 0 0 0-5.686 13.49c-1.867 4.47-3.763 8.967-5.685 13.491l-5.599 13.406a42.185 42.185 0 0 1-2.63 6.873 61.303 61.303 0 0 0-2.8 6.703 547.265 547.265 0 0 0-4.498 13.745c-1.417 4.522-2.235 9.049-2.46 13.575-.227 2.265-.144 4.438.254 6.536a24.942 24.942 0 0 0 1.953 6.023c1.922 3.959 4.807 6.788 8.654 8.483a17.25 17.25 0 0 0 6.024 1.611c2.092.171 4.269.085 6.534-.253a30.882 30.882 0 0 0 6.704-1.444 27.145 27.145 0 0 0 6.192-2.968c4.073-2.719 6.9-6.225 8.486-10.522.791-2.147 1.188-4.326 1.188-6.534 0-2.206-.455-4.217-1.359-6.022-.792-1.472-.932-3.026-.424-4.667.509-1.641 1.554-2.913 3.14-3.818 1.582-.906 3.166-1.16 4.751-.762 1.583.395 2.771 1.328 3.563 2.799.791 1.359 1.018 2.828.68 4.413l-.17.845c-1.697 6.112-4.018 11.257-6.957 15.443-2.944 4.523-6.563 8.317-10.862 11.372a39.338 39.338 0 0 1-6.703 3.985 35.19 35.19 0 0 1-7.382 2.46 26.135 26.135 0 0 1-7.807.515 24.302 24.302 0 0 1-7.465-1.868c-2.604-1.133-4.753-2.546-6.45-4.241-1.924-1.929-3.452-4.021-4.581-6.28a25.045 25.045 0 0 1-2.631-7.295 28.017 28.017 0 0 1-.424-7.811c.34-5.205 1.328-10.154 2.97-14.849a640.549 640.549 0 0 1 5.005-13.83A1329.558 1329.558 0 0 1 28.73 141.07a1661.25 1661.25 0 0 0 11.709-26.896 256.091 256.091 0 0 1 3.904-9.078 398.709 398.709 0 0 0 3.902-8.91 170.185 170.185 0 0 0-4.667-9.589 113.614 113.614 0 0 0-5.346-9.079c-1.018-1.468-2.459-3.081-4.327-4.835-1.867-1.753-3.593-3.082-5.177-3.988-2.037-1.02-5.374-1.528-10.012-1.528l.17-3.055h32.242l36.146 89.092 45.819-89.092h31.738z"/></g></svg>